<?xml version="1.0" encoding="utf-8"?>
<!-- Generator: Adobe Illustrator 19.1.0, SVG Export Plug-In . SVG Version: 6.00 Build 0)  -->
<!DOCTYPE svg PUBLIC "-//W3C//DTD SVG 1.1//EN" "http://www.w3.org/Graphics/SVG/1.1/DTD/svg11.dtd">
<svg version="1.1" id="Layer_1" xmlns="http://www.w3.org/2000/svg" xmlns:xlink="http://www.w3.org/1999/xlink" x="0px" y="0px"
	 viewBox="0 0 98.2 98.2" enable-background="new 0 0 98.2 98.2" xml:space="preserve">
<g>
	<path fill="#DD7F3C" d="M60.7,58.2H24.4c-0.5,0-0.9-0.4-0.9-0.9V39.7c0-0.5,0.4-0.9,0.9-0.9h36.3c0.5,0,0.9,0.4,0.9,0.9v17.5
		C61.6,57.8,61.2,58.2,60.7,58.2z"/>
	<path fill="#DD7F3C" d="M73.3,71.5c-3.2,4.3-6.3,9.4-10.6,12.7c-0.5,0.4-1,0.7-1.6,0.9c-0.7,0.2-1.4,0.2-2.1,0.1
		c-2.4-0.1-4.8-0.3-6.9-1.5c-0.9-0.5-9-3.4-10.5-4.2C35.1,76.1,29,72,23.5,67.3c-2.7-2.3-5.2-4.7-7-7.7c-0.4-0.7,0-2.8,0.2-3.1
		c0.5-0.9,0.4-2-0.1-2.9c-0.4-0.9-1.1-1.7-1.4-2.7c-0.8-2.1-0.1-4.6,1.6-6c-1-0.9-1.2-2.3-1-3.6c0.2-1.3,0.9-2.4,1.5-3.6
		c0.3-0.5,0.8-1.2,1.3-1.6c2.9-2.1,6.2-3.7,9.7-4.5c3.7-0.9,7.6-0.9,11.1,0.3c1.3,0.5,2.5,1.1,3.7,1.7c1.6,0.8,3.3,1.7,4.9,2.5
		c2.9,1.5,5.8,3,8.1,5.1"/>
	<path fill="#E7B53A" d="M74.3,61.9c0.1,0.6,0.2,1.2,0.3,1.8c0.3,1.7,1.1,3.8,0.8,5.5c-0.3,1.5-1.4,3.2-2.6,4.1
		c-3.1,2.4-5.4,6.9-9.4,7.9c-9.3,2.3-19.8-7.5-21.5-9c-2.4-2.3-4.5-5-6.9-7.3c-1.5-1.4-3.1-2.7-4.6-4c-4.1-3.5-7.7-7.5-11.3-11.4
		c-0.7-0.7-1.4-1.6-1.4-2.6c0-0.6,0.3-2,1-2.2c3.4-0.6,6.6,3.2,9.3,5.4c3.3,2.8,6.4,4.5,9.7,7.2C31,52.1,24.8,46.2,19.1,39.8
		c-1.4-1.5-2.8-3.6-1.7-5.4c0.7-1.3,2.5-1.6,3.9-1.2c1.4,0.4,2.6,1.5,3.6,2.5c5,4.7,10,9.4,15.1,14.1c-3.8-4-7.7-8-11.5-12.1
		c-2.8-2.9-7.1-7.8-5.6-10.4c0.3-0.6,2.3-5.4,11.8,4.4c4.2,4.3,9.4,8.9,13.7,13.1c-3.5-3.5-7.9-8.7-11-12.5c-1.5-1.8-6.2-5.4-3.8-8
		c3.6-2.9,7.4,1.8,9.5,3.6c6.1,5,11.1,10.4,16.5,16.2c-0.1-1.9,0.5-4,1-5.9c0.2-0.9,0.5-1.7,1-2.4c0.5-0.7,1.4-1.2,2.2-1.2
		c3.2,0,3.2,3.9,4.2,6c0.8,1.8,1.3,3.7,2.2,5.5c0.8,1.7,0.9,3.6,1.5,5.4C72.8,54.8,73.6,58.3,74.3,61.9z"/>
	<polygon fill="#DD7F3C" points="57.8,32.3 56.5,21.4 59.5,21.4 	"/>
	<polygon fill="#DD7F3C" points="65.6,30.7 70,14.7 76.1,17.6 	"/>
	<polygon fill="#DD7F3C" points="71.1,36.7 81.3,27.7 83.1,30.2 	"/>
</g>
</svg>
