<?xml version="1.0" encoding="utf-8"?>
<!-- Generator: Adobe Illustrator 19.1.0, SVG Export Plug-In . SVG Version: 6.00 Build 0)  -->
<!DOCTYPE svg PUBLIC "-//W3C//DTD SVG 1.1//EN" "http://www.w3.org/Graphics/SVG/1.1/DTD/svg11.dtd">
<svg version="1.1" id="Layer_1" xmlns="http://www.w3.org/2000/svg" xmlns:xlink="http://www.w3.org/1999/xlink" x="0px" y="0px"
	 viewBox="0 0 100.6 100.6" enable-background="new 0 0 100.6 100.6" xml:space="preserve">
<path fill="#D17E43" d="M50.1,77.3c1.1,1.3,2.3,2.4,3.6,3.4c1.1,0.8,2.3,0.9,3.5,1.6c1.3,0.7,2.5,1.6,3.8,2.2c1.3,0.7,2.6,1.2,4,1.6
	c0.7,0.2,3.6,1.2,4.1,0.8c3.7-2.9,5.7-7.6,5.9-12.3c-2.6-1.8-5.3-3.7-7.9-5.5c-0.8-0.6-1.7-1.2-2.2-2.1c-0.4-0.8-0.5-1.6-0.5-2.5
	c-0.3-3.3-0.5-6.6-0.8-9.9c-0.3-4,0.1-7.8-0.9-11.7c-0.6-2.3-1.7-4.5-2.5-6.9c-0.6-2-1-4.1-1.7-6c-0.3-0.8-0.6-1.5-0.8-2.3
	c-0.2-0.9,0.1-1.7-0.7-2.5c-0.7-0.8-2-1-3-0.6c-0.6,0.2-1.1,0.7-1.6,1.1c-0.9,0.8-1.8,1.6-2.7,2.4L50.1,77.3z"/>
<path fill="#D17E43" d="M50.9,77.3c-1.1,1.3-2.3,2.4-3.6,3.4c-1.1,0.8-2.3,0.9-3.5,1.6c-1.3,0.7-2.5,1.6-3.8,2.2
	c-1.3,0.7-2.6,1.2-4,1.6c-0.7,0.2-3.6,1.2-4.1,0.8c-3.7-2.9-5.7-7.6-5.9-12.3c2.6-1.8,5.3-3.7,7.9-5.5c0.8-0.6,1.7-1.2,2.2-2.1
	c0.4-0.8,0.5-1.6,0.5-2.5c0.3-3.3,0.5-6.6,0.8-9.9c0.3-4-0.1-7.8,0.9-11.7c0.6-2.3,1.7-4.5,2.5-6.9c0.6-2,1-4.1,1.7-6
	c0.3-0.8,0.6-1.5,0.8-2.3c0.2-0.9-0.1-1.7,0.7-2.5c0.7-0.8,2-1,3-0.6c0.6,0.2,1.1,0.7,1.6,1.1c0.9,0.8,1.8,1.6,2.7,2.4L50.9,77.3z"
	/>
<path fill="#EABC39" d="M50.2,74.2c-1.1,1.3-2.3,2.4-3.6,3.4c-1.1,0.8-2.3,0.9-3.5,1.6c-1.3,0.7-2.5,1.6-3.8,2.2
	c-1.3,0.7-2.6,1.2-4,1.6c-0.7,0.2-3.6,1.2-4.1,0.8c-3.7-2.9-5.7-7.6-5.9-12.3c2.6-1.8,5.3-3.7,7.9-5.5c0.8-0.6,1.7-1.2,2.2-2.1
	c0.4-0.8,0.5-1.6,0.5-2.5c0.3-3.3,0.5-6.6,0.8-9.9c0.3-4-0.1-7.8,0.9-11.7c0.6-2.3,1.7-4.5,2.5-6.9c0.6-2,1-4.1,1.7-6
	c0.3-0.8,0.6-1.5,0.8-2.3c0.2-0.9-0.1-1.7,0.7-2.5c0.7-0.8,2-1,3-0.6c0.6,0.2,1.1,0.7,1.6,1.1c0.9,0.8,1.8,1.6,2.7,2.4L50.2,74.2z"
	/>
<path fill="#EABC39" d="M51.3,74.2c1.1,1.3,2.3,2.4,3.6,3.4c1.1,0.8,2.3,0.9,3.5,1.6c1.3,0.7,2.5,1.6,3.8,2.2c1.3,0.7,2.6,1.2,4,1.6
	c0.7,0.2,3.6,1.2,4.1,0.8c3.7-2.9,5.7-7.6,5.9-12.3c-2.6-1.8-5.3-3.7-7.9-5.5c-0.8-0.6-1.7-1.2-2.2-2.1c-0.4-0.8-0.5-1.6-0.5-2.5
	c-0.3-3.3-0.5-6.6-0.8-9.9c-0.3-4,0.1-7.8-0.9-11.7c-0.6-2.3-1.7-4.5-2.5-6.9c-0.6-2-1-4.1-1.7-6c-0.3-0.8-0.6-1.5-0.8-2.3
	c-0.2-0.9,0.1-1.7-0.7-2.5c-0.7-0.8-2-1-3-0.6c-0.6,0.2-1.1,0.7-1.6,1.1c-0.9,0.8-2.2,2.1-3.1,2.9L51.3,74.2z"/>
<polygon fill="#D78741" points="22.9,26.5 25.5,22.6 36,32.5 "/>
<polygon fill="#D78741" points="21.5,39.5 22.2,34.9 34.4,39.4 "/>
<polygon fill="#D78741" points="77.7,26.5 75.1,22.6 64.6,32.5 "/>
<polygon fill="#D78741" points="79.1,39.5 78.4,34.9 66.3,39.4 "/>
</svg>
