<?xml version="1.0" encoding="utf-8"?>
<!-- Generator: Adobe Illustrator 19.1.0, SVG Export Plug-In . SVG Version: 6.00 Build 0)  -->
<!DOCTYPE svg PUBLIC "-//W3C//DTD SVG 1.1//EN" "http://www.w3.org/Graphics/SVG/1.1/DTD/svg11.dtd">
<svg version="1.1" id="Layer_1" xmlns="http://www.w3.org/2000/svg" xmlns:xlink="http://www.w3.org/1999/xlink" x="0px" y="0px"
	 viewBox="0 0 97.9 97.9" enable-background="new 0 0 97.9 97.9" xml:space="preserve">
<g>
	<path fill="#3F3F3F" d="M37.9,44.3c5.4,0,9.8-4.4,9.8-9.8s-4.4-9.8-9.8-9.8c-5.4,0-9.8,4.4-9.8,9.8S32.5,44.3,37.9,44.3z"/>
	<path fill="#3F3F3F" d="M58.9,50.4c-3.1,0-6,1.3-8.2,3.4c-2.9-4.6-7.6-7.6-12.7-7.6c-8.9,0-16.1,8.8-16.1,19.7
		c0,3.6,2.4,6.6,5.4,6.6h21.5c0.2,0,0.4,0,0.6,0c0.2,0,0.4,0.1,0.6,0.1h18c2.5,0,4.5-2.5,4.5-5.5C72.4,57.9,66.4,50.4,58.9,50.4z"/>
	<path fill="#3F3F3F" d="M58.9,48.8c4.6,0,8.3-3.7,8.3-8.3s-3.7-8.3-8.3-8.3s-8.3,3.7-8.3,8.3S54.3,48.8,58.9,48.8z"/>
</g>
</svg>
