<?xml version="1.0" encoding="utf-8"?>
<!-- Generator: Adobe Illustrator 19.1.0, SVG Export Plug-In . SVG Version: 6.00 Build 0)  -->
<!DOCTYPE svg PUBLIC "-//W3C//DTD SVG 1.1//EN" "http://www.w3.org/Graphics/SVG/1.1/DTD/svg11.dtd">
<svg version="1.1" id="Layer_1" xmlns="http://www.w3.org/2000/svg" xmlns:xlink="http://www.w3.org/1999/xlink" x="0px" y="0px"
	 viewBox="0 0 100 100" enable-background="new 0 0 100 100" xml:space="preserve">
<g>
	<defs>
		<path id="SVGID_1_" d="M65.2,22.8c0.9,0,1.9,0.1,3,0.2c6.5,0.6,14,6.5,14.9,17.9c0,0.1,0,0.1,0,0.2v3.6c0,0.1,0,0.1,0,0.2
			c-0.9,10.7-8.9,23.9-31.9,40.3c-0.7,0.5-1.7,0.5-2.4,0C25.7,68.7,17.8,55.6,16.9,44.9c0-0.1,0-0.1,0-0.2v-3.6c0-0.1,0-0.1,0-0.2
			c1-11.3,8.4-17.2,14.9-17.9c1.1-0.1,2.1-0.2,3-0.2c6.6,0,10.2,2.5,13.7,6.4c0.8,0.9,2.2,0.9,3,0C55.1,25.3,58.6,22.8,65.2,22.8"/>
	</defs>
	<use xlink:href="#SVGID_1_"  overflow="visible" fill="#F26761"/>
	<clipPath id="SVGID_2_">
		<use xlink:href="#SVGID_1_"  overflow="visible"/>
	</clipPath>
	<g clip-path="url(#SVGID_2_)">
		<path fill="#FF7166" stroke="#FF7166" stroke-width="1.0356" stroke-miterlimit="10" d="M65.2,13.1c0.9,0,1.9,0.1,3,0.2
			c6.5,0.6,14,6.5,14.9,17.9c0,0.1,0,0.1,0,0.2v3.6c0,0.1,0,0.1,0,0.2C82.2,45.8,74.3,59,51.2,75.4c-0.7,0.5-1.7,0.5-2.4,0
			C25.7,59,17.8,45.8,16.9,35.1c0-0.1,0-0.1,0-0.2v-3.6c0-0.1,0-0.1,0-0.2c1-11.3,8.4-17.2,14.9-17.9c1.1-0.1,2.1-0.2,3-0.2
			c6.6,0,10.2,2.5,13.7,6.4c0.8,0.9,2.2,0.9,3,0C55.1,15.6,58.6,13.1,65.2,13.1"/>
	</g>
</g>
</svg>
