<?xml version="1.0" encoding="utf-8"?>
<!-- Generator: Adobe Illustrator 19.1.0, SVG Export Plug-In . SVG Version: 6.00 Build 0)  -->
<!DOCTYPE svg PUBLIC "-//W3C//DTD SVG 1.1//EN" "http://www.w3.org/Graphics/SVG/1.1/DTD/svg11.dtd">
<svg version="1.1" id="Layer_1" xmlns="http://www.w3.org/2000/svg" xmlns:xlink="http://www.w3.org/1999/xlink" x="0px" y="0px"
	 viewBox="0 0 100.3 100.3" enable-background="new 0 0 100.3 100.3" xml:space="preserve">
<g>
	<defs>
		<ellipse id="SVGID_5_" cx="50.2" cy="50.2" rx="31.7" ry="29.4"/>
	</defs>
	<use xlink:href="#SVGID_5_"  overflow="visible" fill="#F4BD42"/>
	<clipPath id="SVGID_2_">
		<use xlink:href="#SVGID_5_"  overflow="visible"/>
	</clipPath>
	<ellipse clip-path="url(#SVGID_2_)" fill="#DBA842" cx="42.4" cy="50" rx="31.7" ry="33.4"/>
	<circle clip-path="url(#SVGID_2_)" fill="#F4BD42" cx="57" cy="50.2" r="30.1"/>
</g>
<g>
	<g>
		<g>
			<path fill="#583929" d="M62,44c2.2-0.9,4.8-1.6,6.7,0.1c1.4,1.2,3.5-0.9,2.1-2.1c-3.1-2.6-6.8-2-10.3-0.6
				C58.8,42.2,60.3,44.7,62,44L62,44z"/>
		</g>
	</g>
	<g>
		<g>
			<path fill="#583929" d="M36.6,45.5c3.3-1.8,7-2.2,10.7-1.2c1.8,0.5,2.6-2.3,0.8-2.8c-4.4-1.1-8.9-0.6-12.9,1.5
				C33.5,43.8,35,46.4,36.6,45.5L36.6,45.5z"/>
		</g>
	</g>
	<g>
		<path fill="#523336" d="M39.4,52c8.1-0.8,18.1-0.5,27.1-0.8c0.3,0,0.7,0,1,0.2c0.3,0.2,0.5,0.6,0.6,0.9c0.3,0.9,0.9,2.8,0.6,3.7
			c-2.6,8.4-9.6,9.2-10.6,9.5c-12.5,3.6-18.4-6.9-19.1-8.3c-0.6-1.4-0.5-4.4,0.5-5.5"/>
	</g>
	<path fill="#0A80DC" d="M39.2,46c-0.5,0.4-1,0.9-1.5,1.3c-0.4,0.3-0.8,0.7-1.2,1c-1.1,1-2.2,1.9-3.1,3.1c-0.6,0.8-1.1,1.8-1.3,2.8
		c-0.2,1,0,2.1,0.6,3c0.9,1.3,2.8,1.7,4.3,1.2c1.5-0.5,2.6-1.9,3.1-3.4c0.8-2.3,0.2-4.8,0.5-7.2c0-0.3,0.1-0.5,0.1-0.8
		c-0.1-0.5-0.4-0.9-0.9-1c-0.5-0.1-1,0-1.3,0.4"/>
	<path fill="#0A80DC" d="M68,45.4c0.5,0.4,1,0.9,1.5,1.3c0.4,0.3,0.8,0.7,1.2,1c1.1,1,2.2,1.9,3.1,3.1c0.6,0.8,1.1,1.8,1.3,2.8
		s0,2.1-0.6,3c-0.9,1.3-2.8,1.7-4.3,1.2c-1.5-0.5-2.6-1.9-3.1-3.4c-0.8-2.3-0.2-4.8-0.5-7.2c0-0.3-0.1-0.5-0.1-0.8
		c0.1-0.5,0.4-0.9,0.9-1c0.5-0.1,1,0,1.3,0.4"/>
</g>
</svg>
