<?xml version="1.0" encoding="utf-8"?>
<!-- Generator: Adobe Illustrator 19.1.0, SVG Export Plug-In . SVG Version: 6.00 Build 0)  -->
<!DOCTYPE svg PUBLIC "-//W3C//DTD SVG 1.1//EN" "http://www.w3.org/Graphics/SVG/1.1/DTD/svg11.dtd">
<svg version="1.1" id="Layer_1" xmlns="http://www.w3.org/2000/svg" xmlns:xlink="http://www.w3.org/1999/xlink" x="0px" y="0px"
	 viewBox="0 0 98.2 98.2" enable-background="new 0 0 98.2 98.2" xml:space="preserve">
<g>
	<defs>
		<ellipse id="SVGID_3_" cx="48.6" cy="51.1" rx="31.7" ry="29.4"/>
	</defs>
	<clipPath id="SVGID_2_">
		<use xlink:href="#SVGID_3_"  overflow="visible"/>
	</clipPath>
	
		<ellipse clip-path="url(#SVGID_2_)" fill="#A53128" stroke="#CD412F" stroke-width="0.7643" stroke-miterlimit="10" cx="41.4" cy="51.1" rx="31.7" ry="29.4"/>
	<circle clip-path="url(#SVGID_2_)" fill="#D44F3D" cx="53" cy="51.1" r="30.1"/>
</g>
<path fill="#51312B" d="M40.7,46.1c0.2-0.4-0.1-0.9-0.5-1.1c-0.9-0.6-6.4-1.7-5.8-3.3c0.2-0.5,0.9-0.6,1.5-0.6c0.6,0,1.3,0,1.9,0
	c1.2,0,2.2,0.1,3.3,0.7c0.7,0.3,1.3,0.7,2,1c0.5,0.3,1.1,0.5,1.5,1c1,0.9,1.6,2.7,1.8,4c0.1,0.8,0.1,1.7-0.4,2.5
	c-0.4,0.6-1,1.1-1.7,1.5c-0.8,0.5-1.6,1-2.5,0.9c-1-0.1-1.7-0.9-2.4-1.6c-0.4-0.4-0.7-0.9-0.8-1.5c-0.1-0.6,0.2-1.2,0.6-1.7
	c0.4-0.5,1-0.8,1.5-1.1"/>
<path fill="#51312B" d="M61.6,45.1c0.3,0.6,0.7,1,1.1,1.5c0.4,0.5,0.6,1.1,0.5,1.7c-0.1,0.4-0.4,0.7-0.6,0.9
	c-0.8,0.8-1.8,1.4-2.9,1.4c-1.1,0.1-2.3-0.4-2.8-1.4c-0.4-0.7-0.4-1.4-0.4-2.2c0-1.4,0.3-2.8,1.2-3.8c0.3-0.4,0.7-0.7,1.2-0.9
	c1.7-1,3.7-1.5,5.7-1.4c0.4,0,0.7,0.1,1,0.2s0.5,0.6,0.4,0.9c-0.2,0.5-0.8,0.5-1.2,0.6c-1.1,0.2-2,0.8-2.6,1.7
	c-0.3,0.4-0.4,0.9-0.2,1.3"/>
<g>
	<g>
		<path fill="#51312B" d="M42.8,64.5c1.3-3.2,5.7-6,9-6.4c5-0.6,8.3,1.7,10.9,5.7c1.2,1.8,4.1,0.1,2.9-1.7
			c-3.5-5.3-7.6-8.2-14.3-7.5c-4.8,0.5-10,4.6-11.8,9C38.8,65.6,42,66.5,42.8,64.5L42.8,64.5z"/>
	</g>
</g>
<circle fill="#51312B" cx="41.9" cy="49.2" r="3.4"/>
<circle fill="#51312B" cx="59.9" cy="47.6" r="3.4"/>
</svg>
