<?xml version="1.0" encoding="utf-8"?>
<!-- Generator: Adobe Illustrator 19.1.0, SVG Export Plug-In . SVG Version: 6.00 Build 0)  -->
<!DOCTYPE svg PUBLIC "-//W3C//DTD SVG 1.1//EN" "http://www.w3.org/Graphics/SVG/1.1/DTD/svg11.dtd">
<svg version="1.1" id="Layer_1" xmlns="http://www.w3.org/2000/svg" xmlns:xlink="http://www.w3.org/1999/xlink" x="0px" y="0px"
	 viewBox="0 0 99.5 99.5" enable-background="new 0 0 99.5 99.5" xml:space="preserve">
<g>
	<defs>
		<ellipse id="SVGID_7_" cx="51.3" cy="51.2" rx="31.7" ry="29.4"/>
	</defs>
	<use xlink:href="#SVGID_7_"  overflow="visible" fill="#F4BD42"/>
	<clipPath id="SVGID_2_">
		<use xlink:href="#SVGID_7_"  overflow="visible"/>
	</clipPath>
	<ellipse clip-path="url(#SVGID_2_)" fill="#DBA842" cx="43.5" cy="51" rx="31.7" ry="33.4"/>
	<circle clip-path="url(#SVGID_2_)" fill="#F4BD42" cx="58.1" cy="51.2" r="30.1"/>
</g>
<g>
	<g>
		<g>
			<path fill="#552F27" d="M43,47.2c0.1,0,0.2,0,0.3,0c1.7,0,3.4-1.5,3.3-3.3c-0.1-1.8-1.5-3.3-3.3-3.3c-0.1,0-0.2,0-0.3,0
				c-1.7,0-3.4,1.5-3.3,3.3C39.8,45.7,41.2,47.2,43,47.2L43,47.2z"/>
		</g>
	</g>
	<g>
		<g>
			<path fill="#552F27" d="M46.2,62.6c4-2.4,8.8-2.8,13-0.8c1.9,0.9,3.6-2,1.7-2.9c-5.3-2.5-11.3-2.3-16.4,0.8
				C42.7,60.8,44.4,63.7,46.2,62.6L46.2,62.6z"/>
		</g>
	</g>
	<g>
		<g>
			<path fill="#552F27" d="M61.9,47.4c0.1,0,0.2,0,0.3,0c1.7,0,3.4-1.5,3.3-3.3c-0.1-1.8-1.5-3.3-3.3-3.3c-0.1,0-0.2,0-0.3,0
				c-1.7,0-3.4,1.5-3.3,3.3C58.7,45.9,60.1,47.4,61.9,47.4L61.9,47.4z"/>
		</g>
	</g>
</g>
<path fill="#0A80DC" d="M63.9,49c0.5,0.4,1,0.9,1.5,1.3c0.4,0.3,0.8,0.7,1.2,1c1.1,1,2.2,1.9,3.1,3.1c0.6,0.8,1.1,1.8,1.3,2.8
	s0,2.1-0.6,3c-0.9,1.3-2.8,1.7-4.3,1.2c-1.5-0.5-2.6-1.9-3.1-3.4c-0.8-2.3-0.2-4.8-0.5-7.2c0-0.3-0.1-0.5-0.1-0.8
	c0.1-0.5,0.4-0.9,0.9-1c0.5-0.1,1,0,1.3,0.4"/>
</svg>
