<?xml version="1.0" encoding="utf-8"?>
<!-- Generator: Adobe Illustrator 19.1.0, SVG Export Plug-In . SVG Version: 6.00 Build 0)  -->
<!DOCTYPE svg PUBLIC "-//W3C//DTD SVG 1.1//EN" "http://www.w3.org/Graphics/SVG/1.1/DTD/svg11.dtd">
<svg version="1.1" id="Layer_1" xmlns="http://www.w3.org/2000/svg" xmlns:xlink="http://www.w3.org/1999/xlink" x="0px" y="0px"
	 viewBox="0 0 16 16" enable-background="new 0 0 16 16" xml:space="preserve">
<g>
	<circle fill="#26BEE9" cx="8" cy="8" r="8"/>
	<path fill="#26BEE9" d="M15,8.7h-2.6c-0.3,0-0.5-0.2-0.5-0.5V7.9c0-0.3,0.2-0.5,0.5-0.5H15c0.3,0,0.5,0.2,0.5,0.5v0.3
		C15.5,8.4,15.3,8.7,15,8.7z"/>
	<g>
		<circle fill="#FFFFFF" cx="8.2" cy="8.3" r="2.6"/>
		<g>
			<polygon points="7.2,6.9 9.6,8.3 7.2,9.7 			"/>
			<polygon fill="#161300" points="7.3,7 9.6,8.3 7.3,9.6 			"/>
		</g>
	</g>
	<path fill="#84DA73" d="M10.1,1.6H3.3C1.9,2.6,0.9,4,0.4,5.6h5.5c0.4,0,0.7-0.3,0.7-0.7c0-0.3-0.3-0.6-0.6-0.7h-3
		C2.5,4.3,2.2,4,2.2,3.6s0.3-0.7,0.7-0.7h0.2h6.9c0.4,0,0.7-0.3,0.7-0.7S10.4,1.6,10.1,1.6z"/>
	<path fill="#84DA73" d="M16,8c0-0.7-0.1-1.4-0.3-2h-3.9c-0.4,0-0.7,0.3-0.7,0.7s0.3,0.7,0.7,0.7h2.6v1.4h-2.6
		c-0.4,0-0.7,0.3-0.7,0.7s0.3,0.7,0.7,0.7h3.9C15.9,9.4,16,8.7,16,8z"/>
	<path fill="#84DA73" d="M2.2,8.3H0c0,0.5,0.1,0.9,0.2,1.4h2c0.4,0,0.7-0.3,0.7-0.7S2.6,8.3,2.2,8.3z"/>
	<path fill="#84DA73" d="M10.9,12.5H7.6H1.4C2.8,14.6,5.2,16,8,16c0.1,0,0.2,0,0.3,0c0,0,0-0.1,0-0.1c0-0.4-0.3-0.7-0.7-0.7H5v-1.4
		h2.6h3.2c0.4,0,0.7-0.3,0.7-0.7C11.5,12.8,11.2,12.5,10.9,12.5z"/>
	<path fill="#26BEE9" d="M4.8,15.2h2.6C7.7,15.2,8,15,8,14.7v-0.3c0-0.3-0.2-0.5-0.5-0.5H4.8c-0.3,0-0.5,0.2-0.5,0.5v0.3
		C4.3,15,4.5,15.2,4.8,15.2z"/>
</g>
</svg>
